<svg width="1664" height="1073" viewBox="0 0 1664 1073" fill="none"
  xmlns="http://www.w3.org/2000/svg">
  <g clip-path="url(#clip0_505_143)">
    <mask id="mask0_505_143" style="mask-type:alpha" maskUnits="userSpaceOnUse" x="0" y="-1"
      width="1664" height="1074">
      <path fill-rule="evenodd" clip-rule="evenodd"
        d="M293.529 -1H1664L1664 0.0130671H293.529V-1ZM1664 117.363V1073L529.988 1073C512.327 1072.99 498.014 1058.56 498.014 1040.76V1073H498V749.591C498 731.785 483.673 717.351 466 717.351H0V717.273H32C14.3269 717.273 0 702.838 0 685.033V0.0130671H293.529V52.8825C293.529 70.6882 307.856 85.1226 325.529 85.1226H1664L1632 85.1226C1649.67 85.1226 1664 99.557 1664 117.363ZM293.529 32.2534C293.529 14.4476 279.202 0.0132274 261.529 0.0132274L293.529 0.0130671L293.529 32.2534Z"
        fill="#5344FF" />
    </mask>
    <g mask="url(#mask0_505_143)">
      <path fill-rule="evenodd" clip-rule="evenodd"
        d="M293.529 -1H1664L1664 0.00552094H293.529V-1ZM1664 116.481V1065L530.014 1065H529.988C512.327 1064.99 498.014 1050.66 498.014 1033V1065H498V744C498 726.327 483.673 712 466 712H0V711.922H32C14.3269 711.922 0 697.596 0 679.922V0.00552094H293.529V52.4811C293.529 70.1542 307.856 84.4811 325.529 84.4811H1664L1664 0.00552094V84.4811H1632C1649.67 84.4811 1664 98.808 1664 116.481ZM293.529 32.0057C293.529 14.3326 279.202 0.00568008 261.529 0.00568008H293.529V32.0057Z"
        fill="#5344FF" />
    </g>
  </g>
  <defs>
    <clipPath id="clip0_505_143">
      <path
        d="M0 32C0 14.3269 14.3269 0 32 0H1632C1649.67 0 1664 14.3269 1664 32V1041C1664 1058.67 1649.67 1073 1632 1073H32C14.3269 1073 0 1058.67 0 1041V32Z"
        fill="white" />
    </clipPath>
  </defs>
</svg>
  